HIERARCHY
ROOT Hips
{
	OFFSET 0.203676 102.566879 -1.929824
	CHANNELS 6 Xposition Yposition Zposition Xrotation Yrotation Zrotation
	JOINT Chest
	{
		OFFSET -1.730901 13.517143 0.667042
		CHANNELS 3 Xrotation Yrotation Zrotation
		JOINT Chest2
		{
			OFFSET -3.784015 20.967827 2.257866
			CHANNELS 3 Xrotation Yrotation Zrotation
			JOINT Chest3
			{
				OFFSET 1.150332 14.882309 0.115468
				CHANNELS 3 Xrotation Yrotation Zrotation
				JOINT Neck
				{
					OFFSET 2.164830 17.103439 1.183911
					CHANNELS 3 Xrotation Yrotation Zrotation
					JOINT Head
					{
						OFFSET 0.029927 10.199249 2.408782
						CHANNELS 3 Xrotation Yrotation Zrotation
						End Site
						{
							OFFSET 0.057644 10.214462 2.342902
						}
					}
				}
				JOINT LeftCollar
				{
					OFFSET 5.034868 12.434708 4.672535
					CHANNELS 3 Xrotation Yrotation Zrotation
					JOINT LeftUpArm
					{
						OFFSET 15.420557 -7.025513 -4.620374
						CHANNELS 3 Xrotation Yrotation Zrotation
						JOINT LeftLowArm
						{
							OFFSET 18.933456 -27.949677 -0.260622
							CHANNELS 3 Xrotation Yrotation Zrotation
							JOINT LeftHand
							{
								OFFSET 20.477844 -20.060005 8.899484
								CHANNELS 3 Xrotation Yrotation Zrotation
								End Site
								{
									OFFSET 4.475563 -4.384224 1.945034
								}
							}
						}
					}
				}
				JOINT RightCollar
				{
					OFFSET -3.075303 13.594864 2.744261
					CHANNELS 3 Xrotation Yrotation Zrotation
					JOINT RightUpArm
					{
						OFFSET -11.434578 8.588806 -10.197014
						CHANNELS 3 Xrotation Yrotation Zrotation
						JOINT RightLowArm
						{
							OFFSET -18.943583 26.625168 8.483794
							CHANNELS 3 Xrotation Yrotation Zrotation
							JOINT RightHand
							{
								OFFSET 11.196503 19.261063 20.114796
								CHANNELS 3 Xrotation Yrotation Zrotation
								End Site
								{
									OFFSET 2.447117 4.209686 4.396290
								}
							}
						}
					}
				}
			}
		}
	}
	JOINT LeftUpLeg
	{
		OFFSET 9.047821 0.951057 4.201376
		CHANNELS 3 Xrotation Yrotation Zrotation
		JOINT LeftLowLeg
		{
			OFFSET -0.564905 -47.236828 3.514614
			CHANNELS 3 Xrotation Yrotation Zrotation
			JOINT LeftFoot
			{
				OFFSET -0.089234 -40.650429 -18.657497
				CHANNELS 3 Xrotation Yrotation Zrotation
				JOINT LeftToe
				{
					OFFSET -5.631078 -17.077677 15.368916
					CHANNELS 3 Xrotation Yrotation Zrotation
					End Site
					{
						OFFSET -5.733057 -2.949050 22.759483
					}
				}
			}
		}
	}
	JOINT RightUpLeg
	{
		OFFSET -9.047800 -0.951256 -4.201388
		CHANNELS 3 Xrotation Yrotation Zrotation
		JOINT RightLowLeg
		{
			OFFSET -20.025650 -42.328491 7.161368
			CHANNELS 3 Xrotation Yrotation Zrotation
			JOINT RightFoot
			{
				OFFSET 27.464659 -21.741676 -27.813187
				CHANNELS 3 Xrotation Yrotation Zrotation
				JOINT RightToe
				{
					OFFSET 7.175303 -22.362431 2.827341
					CHANNELS 3 Xrotation Yrotation Zrotation
					End Site
					{
						OFFSET -7.591990 -20.685688 8.603494
					}
				}
			}
		}
	}
}
MOTION
Frames: 9
Frame Time: 0.033333
0.361567 101.650795 -2.101583 -0.286988 -1.311477 0.923836 0.213547 -0.057101 0.504915 -2.412812 0.074833 -0.895753 2.345388 1.230177 -0.217401 0.318943 1.702789 -1.735219 0.000002 -0.000001 -0.000000 0.300514 -1.243248 -1.304472 -0.089894 0.268066 0.846067 -0.465770 -0.317890 -0.568185 0.000001 0.000001 -0.000000 0.151858 0.226939 -0.442221 0.238297 0.617199 0.305352 3.910478 1.776283 -1.971653 -0.000007 -0.000001 0.000000 -1.277394 -0.132782 -1.697821 2.808449 -0.084146 0.363217 -0.782671 1.454454 1.273775 0.000001 -0.000001 0.000001 -2.541758 0.380101 -1.762250 4.043572 0.807136 0.504767 -1.353783 2.422291 0.202411 0.000002 -0.000003 -0.000000 
0.383319 101.502876 -2.132052 -0.293092 -1.241124 1.256808 0.604725 0.011594 0.468523 -2.678021 0.209545 -1.210592 2.598446 1.049752 -0.069063 0.044456 2.075529 -2.204081 0.000001 -0.000002 -0.000000 0.257190 -0.881461 -1.392117 0.018058 0.628522 1.028869 -0.590921 -0.478165 -1.220700 -0.000001 -0.000002 -0.000000 0.135312 0.134568 -0.792527 -0.243008 0.246200 0.526946 3.936095 2.102790 -2.876565 0.000002 -0.000001 -0.000003 -1.370720 -0.068448 -2.193054 2.918263 -0.191988 0.510024 -1.094835 1.415092 1.351954 -0.000000 -0.000001 0.000001 -2.741067 0.347330 -2.281693 3.760019 0.623557 0.942135 -0.776733 1.348042 -0.004757 0.000002 -0.000002 -0.000004 
0.406413 101.355110 -2.162634 -0.427038 -1.301493 1.413452 1.035102 0.068547 0.678147 -3.125632 0.374749 -1.527363 2.842460 0.794372 0.018350 0.120052 2.635064 -2.604214 -0.000000 -0.000003 -0.000000 0.221956 -0.885392 -1.719350 0.082829 0.542571 1.318015 -0.713084 -0.898690 -2.016460 0.000000 0.000001 0.000005 0.501581 0.589377 -0.864760 -0.387439 0.023054 0.378138 4.364233 2.294842 -3.187311 -0.000002 0.000000 -0.000000 -0.763899 -0.097143 -2.473903 2.391242 -0.185230 0.633687 -0.861966 1.673565 1.396686 0.000001 -0.000001 -0.000000 -2.743488 0.413841 -2.622969 3.942382 0.785646 1.133146 -0.938917 0.725484 -0.041285 0.000001 -0.000000 -0.000002 
0.429831 101.215149 -2.188169 -0.253145 -1.098211 1.515556 0.636860 0.003677 0.814733 -2.771407 0.377651 -1.395778 2.682113 0.314674 -0.197119 0.480783 3.306832 -3.161662 -0.000000 -0.000001 -0.000000 0.054152 -0.935014 -1.863952 -0.371456 0.177924 1.443577 -0.501481 -0.538038 -2.962671 -0.000000 -0.000001 0.000001 0.541512 0.788794 -0.976065 -0.274762 0.287293 0.312367 4.722542 2.634658 -3.535943 -0.000002 0.000000 -0.000000 -0.747206 -0.158310 -2.690654 2.542780 -0.140172 0.832890 -0.652209 1.256469 1.106814 0.000001 0.000000 0.000001 -2.766123 0.412643 -2.791241 3.909648 0.746617 1.109425 -1.644049 1.322797 0.079674 -0.000001 -0.000002 -0.000000 
0.454642 101.073586 -2.223739 -0.242937 -1.447538 1.725695 1.209244 0.061390 0.828161 -3.390544 0.312980 -1.549262 3.025549 0.370428 -0.281939 0.119605 3.758835 -3.422616 0.000000 -0.000002 -0.000000 0.399124 -1.830116 -1.792301 -0.549489 -0.416443 1.500933 -0.020638 -0.615372 -3.726249 0.000001 0.000002 -0.000000 0.692588 0.631675 -1.068252 -0.150118 -0.113522 0.328001 3.651952 3.097394 -5.036903 0.000000 -0.000001 0.000000 -1.075092 -0.088629 -2.917672 3.059276 -0.320661 0.704739 -1.113908 1.293342 1.278021 -0.000000 0.000000 0.000001 -3.485529 0.512727 -3.063918 4.647102 0.959761 1.229969 -1.871217 1.689125 0.033408 -0.000001 -0.000002 -0.000002 
0.485186 100.933167 -2.265445 0.687104 -1.531395 1.959583 1.260025 0.046967 0.877361 -3.654282 0.256088 -1.524535 2.916911 -0.355691 -0.382751 -0.500408 4.761991 -4.265760 0.000001 -0.000002 0.000000 0.471341 -1.991782 -1.479441 -0.800009 -1.049382 1.216474 0.251017 -0.746929 -4.786206 -0.000000 -0.000002 0.000001 0.678370 0.472739 -1.186041 -0.128969 -0.464610 -0.166310 4.360691 3.606446 -6.020820 -0.000002 0.000001 0.000001 -2.267679 -0.200202 -3.099812 3.289182 -0.397897 0.284998 -0.474259 1.836299 1.376123 0.000000 0.000002 0.000000 -4.968929 0.882331 -3.469678 4.769794 0.936220 1.845205 -2.046971 1.731750 0.094132 -0.000001 -0.000001 -0.000000 
0.516356 100.800842 -2.307643 1.196634 -1.746102 2.128798 1.568736 0.084166 0.848674 -4.143199 0.239734 -1.580914 3.285472 -0.283295 -0.331391 -0.841414 5.241611 -4.714772 -0.000001 -0.000002 -0.000001 0.448320 -2.180016 -1.430653 -0.629599 -1.037676 1.271475 0.209414 -0.919788 -5.630837 0.000001 -0.000003 -0.000000 0.530077 0.306394 -1.229246 -0.096301 -0.587650 -0.373256 4.209315 3.961491 -6.487584 -0.000002 0.000000 -0.000000 -3.225668 -0.331511 -3.213870 3.563133 -0.356803 0.032006 0.403452 2.284276 1.398953 0.000001 0.000000 -0.000000 -5.511896 1.077358 -3.749922 4.597198 0.854885 2.043242 -1.979999 1.479075 0.052486 -0.000003 -0.000003 -0.000000 
0.546036 100.671684 -2.349450 1.392010 -1.770911 2.290791 1.448311 0.079399 1.020681 -3.695893 0.307100 -1.575742 2.829059 -0.800239 -0.655906 -0.772191 5.740062 -5.093831 -0.000001 -0.000001 0.000001 0.302254 -2.475116 -1.866853 -0.717348 -0.624177 2.032307 0.456214 -0.345570 -6.917584 -0.000000 -0.000002 -0.000000 0.231605 0.235577 -1.303994 -0.216480 -0.205416 -0.406090 4.880781 4.414884 -6.812552 -0.000001 0.000000 -0.000001 -3.561081 -0.312995 -3.388362 3.456463 -0.362544 -0.078882 0.739664 2.629006 1.471953 0.000002 -0.000001 0.000001 -5.885066 1.145026 -4.021548 4.532953 0.904138 2.351954 -2.441115 1.107659 0.073565 -0.000003 -0.000001 -0.000002 
0.578822 100.536102 -2.394766 1.219955 -1.538314 2.500171 1.654194 0.092157 1.176430 -3.869564 0.321077 -1.703028 2.935589 -1.040520 -0.754836 -0.527272 6.308305 -5.466341 -0.000001 0.000001 -0.000001 0.465847 -2.195356 -2.052668 -0.913859 -0.872022 2.234771 0.757700 -0.278721 -7.813757 -0.000001 -0.000002 -0.000000 0.550605 0.422714 -1.611995 -0.005763 -0.035749 -0.563709 5.176609 4.347455 -6.621833 -0.000004 0.000000 0.000002 -3.644246 -0.273049 -3.711583 3.543251 -0.558756 -0.081395 0.429944 2.672322 1.537145 -0.000000 -0.000001 0.000001 -5.878045 1.134575 -4.486993 4.703312 0.969017 2.861217 -2.957103 0.993105 0.072070 -0.000003 -0.000001 -0.000000 
